PathFileType	4	(X/Y/Z)	D:\TRACE\spotREDO_2-26-24\spot_baseline_5-v60.trc
DataRate	CameraRate	NumFrames	NumMarkers	Units	OrigDataRate	OrigDataStartFrame	OrigNumFrames
100.00	100.00	      28	9	mm	100.00	4376	      7000
Frame#	Time	front left toe			Front right toe			aft left toe			aft right toe			Arm			FL body			FR body			AL Body			AR Body			
		X1	Y1	Z1	X2	Y2	Z2	X3	Y3	Z3	X4	Y4	Z4	X5	Y5	Z5	X6	Y6	Z6	X7	Y7	Z7	X8	Y8	Z8	X9	Y9	Z9	

4376	43.750	-217.28769	17.79699	-89.18475	259.09174	130.81172	-53.37382	-312.33173	22.40762	395.92776	205.61836	27.74943	394.92728	0.22246	808.75397	-258.27887	-86.97866	550.21106	-242.09044	68.31586	553.45673	-230.00179	-166.03287	559.51312	637.61737	-17.66761	558.59052	651.82562	
4377	43.760	-217.29196	17.86021	-89.15894	256.88412	121.44041	-52.53317	-312.42612	22.46792	395.84482	205.56000	27.74537	394.99033	0.48078	808.79596	-257.77151	-86.83378	550.37384	-241.70308	68.43656	553.47467	-229.60927	-165.46492	559.27362	638.25458	-17.19454	558.36084	652.79498	
4378	43.770	-217.26405	17.87317	-89.18124	255.28017	110.47314	-51.35991	-312.37720	22.44235	395.90497	205.56892	27.78127	395.04166	0.66824	808.96234	-257.42365	-86.81409	550.50171	-241.34354	68.49320	553.48755	-229.13876	-165.35616	559.46680	638.92639	-17.22798	558.40240	653.22119	
4379	43.780	-217.25813	17.85306	-89.16718	253.48543	99.15228	-49.84797	-312.39032	22.46152	395.86942	205.54742	27.80475	395.05020	0.86913	808.91565	-257.07516	-86.61897	550.54565	-240.84329	68.67200	553.51355	-228.64972	-165.33743	559.51404	639.35559	-17.39276	558.37769	653.63617	
4380	43.790	-217.25676	17.84628	-89.14917	253.14244	88.47794	-46.39124	-312.43881	22.47720	395.89713	205.55446	27.70669	395.07013	1.45766	808.86407	-256.36127	-86.45669	550.55255	-240.37663	68.79769	553.43494	-228.15608	-165.44397	559.46338	639.51007	-17.77857	558.64063	653.63165	
4381	43.800	-217.27158	17.83364	-89.12392	250.51543	77.61763	-46.12737	-312.40002	22.45920	395.92459	205.55017	27.69496	395.18106	1.83255	808.75604	-255.85077	-86.23247	550.38043	-240.00363	68.93792	553.24469	-227.63148	-165.41948	559.55988	639.90216	-17.46070	558.39557	654.19983	
4382	43.810	-217.20889	17.81444	-89.13126	248.84834	66.51376	-45.03849	-312.40970	22.45239	395.94864	205.61224	27.60522	395.08936	1.94219	808.70166	-255.67151	-86.05067	550.27710	-239.64023	69.18459	553.09344	-227.26228	-165.30736	559.60406	640.36371	-17.18366	558.35864	654.89325	
4383	43.820	-217.20036	17.83884	-89.13813	248.18895	56.60144	-44.09517	-312.37433	22.39176	396.00565	205.61340	27.62828	395.19455	1.98064	808.63708	-255.53064	-85.92071	550.18481	-239.38530	69.26373	553.07446	-226.96173	-165.32268	559.59998	640.73425	-17.16156	558.46680	655.06653	
4384	43.830	-217.16982	17.83432	-89.11646	247.98108	46.27246	-43.36736	-312.39352	22.44392	395.96945	205.71822	27.56979	395.18982	2.10306	808.42102	-255.29428	-85.78704	550.09198	-238.92883	69.49727	552.94257	-226.50516	-165.17528	559.67596	641.17999	-17.12836	558.51514	655.36725	
4385	43.840	-217.18813	17.84863	-89.11237	248.50165	36.77707	-42.69299	-312.36948	22.46559	395.99149	205.69231	27.58175	395.22101	2.31693	808.32666	-254.88074	-85.62115	550.04510	-238.48454	69.60216	552.81274	-226.13031	-165.15016	559.66199	641.48401	-17.08966	558.62805	655.77863	
4386	43.850	-217.19244	17.86775	-89.06500	247.52225	26.02171	-42.98932	-312.34189	22.45928	395.98126	205.66312	27.58379	395.28210	2.67122	808.25995	-254.31859	-85.41280	549.96411	-238.16040	69.84194	552.74908	-225.80423	-165.05931	559.74133	641.67352	-17.00314	558.60211	656.12518	
4387	43.860	-217.19933	17.70650	-89.04329	248.40710	25.17666	-43.18467	-312.38940	22.43541	396.02338	205.53143	27.43119	395.23215	2.84509	808.33575	-254.05431	-85.43748	550.02808	-237.84639	69.79105	552.89178	-225.53195	-165.03828	559.72266	641.98230	-16.82626	558.62622	656.51648	
4388	43.870	-217.16301	18.15955	-88.93055	250.46175	25.97418	-42.74456	-312.95889	21.30238	396.20038	205.75714	27.62108	395.10202	2.47945	809.00848	-253.44717	-85.38967	550.67096	-237.51875	70.16354	554.06586	-225.19312	-165.02011	559.28571	642.43695	-16.31884	558.20544	656.68005	
4389	43.880	-217.22003	18.53008	-88.95671	249.08765	26.44049	-42.79275	-313.04413	21.45662	395.80850	205.74074	27.90281	395.08698	1.07466	810.35046	-252.93022	-85.31644	551.47308	-237.22502	69.93905	554.90820	-224.86494	-164.68768	559.61572	642.85370	-16.56044	558.83539	657.08667	
4390	43.890	-217.48198	18.38361	-88.93252	248.39510	26.61380	-42.80268	-312.38300	21.95382	395.91986	205.54816	28.17825	395.08606	0.83916	811.37463	-252.46515	-85.52900	551.85730	-236.78998	69.85455	555.27948	-224.56067	-164.36885	560.60272	643.17084	-16.49264	559.94421	657.26410	
4391	43.900	-217.46283	18.31984	-88.86629	248.50607	26.78231	-42.61658	-312.24036	22.08038	396.09897	206.04604	28.17465	394.92899	0.91789	811.54919	-252.37025	-85.60284	552.03448	-236.50050	69.81030	555.46722	-224.33852	-163.96005	561.16443	643.43622	-15.66191	560.48645	657.64655	
4392	43.910	-217.48888	18.33268	-88.86408	248.03676	26.69397	-42.92588	-312.22467	22.10425	396.14368	206.01837	28.16721	394.92892	0.89223	811.38342	-252.43901	-85.75411	552.15869	-236.27065	69.67724	555.63934	-224.10260	-163.55527	561.76984	643.63184	-15.24429	561.07745	657.81616	
4393	43.920	-217.56412	18.38167	-88.84566	247.41585	26.85724	-43.05181	-312.23428	22.14360	396.09091	206.00983	27.96661	394.80722	0.86096	811.21649	-252.71837	-85.73491	552.15350	-236.04034	69.70961	555.64807	-223.98276	-163.06508	562.35437	643.82794	-14.07068	561.54871	658.20367	
4394	43.930	-217.51443	18.30305	-88.82413	247.73595	26.63254	-42.91117	-312.19638	22.12302	396.06046	206.12453	27.91789	394.79868	0.96859	811.03467	-252.80446	-85.63659	552.10632	-235.90970	69.82585	555.60651	-223.92279	-162.67197	562.95129	643.85693	-13.47505	562.11420	657.84509	
4395	43.940	-217.48434	18.30297	-88.80515	247.79025	26.40857	-42.88407	-312.20450	22.15716	395.94724	206.08447	27.85208	394.79941	1.20276	810.80682	-253.02356	-85.21563	551.85193	-235.69803	70.06747	555.44012	-223.92284	-162.59198	563.54285	643.68231	-14.16079	562.83197	658.05322	
4396	43.950	-217.47101	18.31178	-88.83190	247.90193	26.33020	-42.94891	-312.16034	22.19712	395.94754	206.15596	27.98245	394.72229	1.43500	810.69824	-253.11769	-85.03993	551.82806	-235.75099	70.35863	555.26495	-223.94148	-162.42632	564.03717	643.63916	-13.67570	563.39935	658.18121	
4397	43.960	-217.42662	18.32312	-88.86032	248.05020	26.23869	-42.87821	-312.14136	22.22576	395.87677	206.19598	27.90504	394.73447	2.31992	810.43622	-253.32193	-84.63683	551.65161	-235.78590	70.87901	555.05035	-223.97578	-162.19550	564.32532	643.46417	-13.14805	563.63483	658.23956	
4398	43.970	-217.44878	18.37000	-88.89513	248.09428	26.20094	-42.85373	-312.16266	22.22651	395.82095	206.17813	27.83469	394.73691	2.93608	810.21112	-253.47472	-83.99007	551.47784	-235.81567	71.38417	554.92206	-224.02095	-161.72429	564.54364	643.46808	-12.72667	563.83221	658.15015	
4399	43.980	-217.32492	18.41524	-88.90565	248.24667	26.11351	-42.78101	-312.14175	22.24570	395.83426	206.21284	27.74826	394.75266	3.62959	810.12659	-253.51843	-83.27698	551.42712	-236.00653	72.01702	554.81744	-223.92110	-161.34967	564.67822	643.35474	-12.42825	563.92029	658.10895	
4400	43.990	-217.21004	18.54821	-88.95216	248.31946	25.99987	-42.68176	-312.16348	22.22720	395.75671	206.27376	27.68574	394.82144	4.05687	810.15424	-253.65164	-82.77565	551.43195	-236.16072	72.82500	554.82001	-224.04498	-160.92303	564.77252	643.23157	-12.24150	564.05084	657.96790	
4401	44.000	-217.02722	18.63336	-88.97629	248.38237	25.92267	-42.62842	-312.11801	22.28365	395.70313	206.26703	27.68129	394.83810	4.62412	810.09418	-253.77650	-82.12524	551.44073	-236.30824	73.43406	554.80139	-224.15488	-160.67282	564.91052	642.95026	-11.84570	564.12109	657.79120	
4402	44.010	-216.99651	18.69953	-88.98245	248.40306	25.86917	-42.61424	-312.11771	22.25813	395.69037	206.29590	27.55348	394.85880	5.41888	810.00226	-254.22871	-81.15942	551.24841	-236.39163	74.12955	554.71588	-224.36563	-160.41228	564.93744	642.62628	-11.42395	564.22467	657.60156	
4403	44.020	-216.94772	18.70173	-89.02453	248.41946	25.78014	-42.58620	-312.04321	22.24513	395.61444	206.31659	27.52362	394.90182	6.02269	809.97815	-254.41483	-80.64333	551.24634	-236.59987	74.86104	554.67450	-224.45517	-160.21120	565.04663	642.35358	-10.98001	564.38831	657.76831	
